<svg xmlns="http://www.w3.org/2000/svg" viewBox="0 0 82 82"><defs><style>.a{fill:#0756a5;}.b{fill:#fff;}.c,.d{fill:none;stroke:#0756a5;stroke-width:3px;}.c{stroke-linejoin:round;}.d{stroke-miterlimit:10;}</style></defs><path class="a" d="M46.45,71.58C46.45,73,44,74.17,41,74.17S35.51,73,35.51,71.58"/><path class="a" d="M80.47,12.55V72H1.53V12.55S36.32,4.27,41,19.25C45.68,4.27,80.47,12.55,80.47,12.55Z"/><path class="b" d="M76.53,9.75V66S45.22,58.24,41,72.38V16.08C45.22,1.91,76.53,9.75,76.53,9.75Z"/><path class="b" d="M41,16.08v56.3C36.79,58.24,5.48,66,5.48,66V9.75S36.79,1.91,41,16.08Z"/><path class="c" d="M41,72.38C45.22,58.24,76.53,66,76.53,66V9.75S45.22,1.91,41,16.08C36.79,1.91,5.48,9.75,5.48,9.75V66S36.79,58.24,41,72.38Z"/><line class="d" x1="40.98" y1="16.08" x2="40.98" y2="72.38"/></svg>