<svg xmlns="http://www.w3.org/2000/svg" viewBox="0 0 24 24"><defs><style>.a{fill:#0756a5;}</style></defs><path class="a" d="M21.51.1h-19A2.5,2.5,0,0,0,0,2.59v19a2.5,2.5,0,0,0,2.49,2.5h19A2.5,2.5,0,0,0,24,21.6v-19A2.5,2.5,0,0,0,21.51.1Zm-18.6,20a1.38,1.38,0,1,1,1.37-1.38A1.38,1.38,0,0,1,2.91,20.07Zm0-6.59A1.38,1.38,0,1,1,4.28,12.1,1.38,1.38,0,0,1,2.91,13.48Zm0-6.59A1.38,1.38,0,1,1,4.28,5.51,1.38,1.38,0,0,1,2.91,6.89ZM20.36,20H6.64a1.36,1.36,0,0,1,0-2.68H20.36a1.36,1.36,0,0,1,0,2.68Zm0-6.59H6.64A1.26,1.26,0,0,1,5.5,12.1a1.26,1.26,0,0,1,1.14-1.34H20.36A1.26,1.26,0,0,1,21.5,12.1,1.26,1.26,0,0,1,20.36,13.44Zm0-6.59H6.64A1.25,1.25,0,0,1,5.5,5.51,1.26,1.26,0,0,1,6.64,4.17H20.36A1.26,1.26,0,0,1,21.5,5.51,1.25,1.25,0,0,1,20.36,6.85Z"/></svg>