<svg xmlns="http://www.w3.org/2000/svg" viewBox="0 0 56 55"><defs><style>.a{fill:#262262;fill-rule:evenodd;}</style></defs><title>dog</title><path class="a" d="M28.05.37C12.79.37.33,12.51.33,27.52S12.79,54.67,28.05,54.67s27.71-12.2,27.71-27.15S43.31.37,28.05.37m0,3.77c13.16,0,23.87,10.49,23.87,23.38S41.21,50.9,28.05,50.9,4.18,40.41,4.18,27.52,14.89,4.14,28.05,4.14"/><path class="a" d="M43.35,19.58,39.9,15.44l1-3.37a3.63,3.63,0,0,0-2.58,1.1c-.86,1.09-5.43,9.19-6.28,9.53s-13.35,1.68-17.39.84h-.11l-3.37-2.22a1.22,1.22,0,0,0-1.67.27,1.16,1.16,0,0,0,.27,1.64l3,2.48c-1.21,4.63-.33,15.17-.13,17.27h7.07c-.36-1.31-1.32-5.9,1.31-9.4l8.52,1.35,1.64,8h5.09c.08-2,.54-11.41,1.62-14.79l5.68,2.19,3.35-6s-3.52-1.43-3.52-4.8"/></svg>