<svg xmlns="http://www.w3.org/2000/svg" viewBox="0 0 24 24"><defs><style>.a{fill:#0756a5;}</style></defs><path class="a" d="M13.1,2.9h0a3.5,3.5,0,0,0-4.95,0l-.05,0-1,1-.9-1a3.5,3.5,0,0,0-4.95,0l-.05,0h0a3.5,3.5,0,0,0-.05,4.95l.05.05.9.9h0l5,4.9h0l5-4.9h0l.9-.9a3.42,3.42,0,0,0,.26-4.83A1.29,1.29,0,0,0,13.1,2.9Z"/><path class="a" d="M22.8,11.2h0a3.5,3.5,0,0,0-4.95,0l-.05,0-.9.9-.9-.9a3.5,3.5,0,0,0-4.95,0l-.05,0h0A3.5,3.5,0,0,0,11,16.15l.05.05.9.9h0l5,4.9h0l5-4.9h0l.9-.9a3.5,3.5,0,0,0,.05-4.95Z"/></svg>