<svg xmlns="http://www.w3.org/2000/svg" viewBox="0 0 500 500"><defs><style>.a{fill:#1c88c9;}</style></defs><path class="a" d="M228.05,0h43.83C406.06,11.32,511.69,137.33,499,272.47,486,407.31,362.78,511.19,227.06,499,92.5,486-11.19,362.54,1,226.56,12.55,108.88,109.32,10.78,228.05,0Zm27.76,242c0,24.6.14,49.19-.12,73.79-.05,4.75,1.43,6,5.85,5.62,3.62-1,14.88,1.46,16.4-1.12.48-6.31,3.53-2.58,5.63-1.47,107.46,39.51,104.82-139-1-96.63-4,2.19-4.49,1.33-4.45-2.71.15-16.95-.05-33.9.17-50.85,1-10-11.94-3.72-17.82-5.65-3.79-.3-4.73,1-4.7,4.73C255.89,192.43,255.81,217.2,255.81,242ZM229,257.45c4.08-1,14.8,3,11.61-4.53-10.45-33.31-51.05-48.3-80.9-29.82-46,26.64-26.79,100.86,26.31,102,23.63,1.42,47.79-15.37,54.55-37.83.84-2.77.45-3.93-2.75-3.82-7.51,1.61-18.05-3.56-23.1,3.78-33.83,44.55-88.48-22.35-37.74-46.79C212.09,229.52,207.83,260.67,229,257.45Z"/><path class="a" d="M310,238.89a31.66,31.66,0,1,1-31.79,32A31.57,31.57,0,0,1,310,238.89Z"/></svg>