<?xml version="1.0" encoding="utf-8"?>
<!-- Generator: Adobe Illustrator 19.1.0, SVG Export Plug-In . SVG Version: 6.00 Build 0)  -->
<svg version="1.1" id="Layer_1" xmlns="http://www.w3.org/2000/svg" xmlns:xlink="http://www.w3.org/1999/xlink" x="0px" y="0px"
	 viewBox="-284 375 43 43" style="enable-background:new -284 375 43 43;" xml:space="preserve">
<style type="text/css">
	.st0{enable-background:new    ;}
	.st1{fill:#E95950;}
	.st2{filter:url(#Adobe_OpacityMaskFilter);}
	.st3{fill:#FFFFFF;}
</style>
<title>ICON/contact/instagram@3x</title>
<desc>Created with Sketch.</desc>
<g id="Page-1">
	<g id="Personal-1" transform="translate(-225.000000, -196.000000)">
		<g id="Contact" transform="translate(15.000000, 79.000000)">
			<g id="ICONS_x2F_contact_x2F_instagram" transform="translate(210.000000, 117.000000)">
				<g id="Instagram">
					<g id="Bitmap">
						<g id="Mask" class="st0">
							<path id="path-1_1_" class="st1" d="M-284,396.5c0-11.9,9.6-21.5,21.5-21.5s21.5,9.6,21.5,21.5s-9.6,21.5-21.5,21.5
								S-284,408.4-284,396.5z"/>
						</g>
						<defs>
							<filter id="Adobe_OpacityMaskFilter" filterUnits="userSpaceOnUse" x="-284" y="375" width="43" height="43">
								<feColorMatrix  type="matrix" values="1 0 0 0 0  0 1 0 0 0  0 0 1 0 0  0 0 0 1 0"/>
							</filter>
						</defs>
						<mask maskUnits="userSpaceOnUse" x="-284" y="375" width="43" height="43" id="mask-2">
							<g class="st2">
								<path id="path-1" class="st3" d="M-284,396.5c0-11.9,9.6-21.5,21.5-21.5s21.5,9.6,21.5,21.5s-9.6,21.5-21.5,21.5
									S-284,408.4-284,396.5z"/>
							</g>
						</mask>
						<g style="display:none;mask:url(#mask-2);enable-background:new    ;">
							
								<image style="display:inline;overflow:visible;" width="148" height="148" xlink:href="C657C355.png"  transform="matrix(0.2905 0 0 0.2905 -284 375)">
							</image>
						</g>
					</g>
					<path id="Shape" class="st3" d="M-262.5,385c-3.1,0-3.5,0-4.7,0.1c-1.2,0.1-2.1,0.2-2.8,0.5c-0.8,0.3-1.4,0.7-2,1.3
						c-0.6,0.6-1,1.3-1.3,2c-0.3,0.7-0.5,1.6-0.5,2.8c-0.1,1.2-0.1,1.6-0.1,4.7s0,3.5,0.1,4.7c0.1,1.2,0.2,2.1,0.5,2.8
						c0.3,0.8,0.7,1.4,1.3,2c0.6,0.6,1.3,1,2,1.3c0.7,0.3,1.6,0.5,2.8,0.5c1.2,0.1,1.6,0.1,4.7,0.1c3.1,0,3.5,0,4.7-0.1
						c1.2-0.1,2.1-0.2,2.8-0.5c0.8-0.3,1.4-0.7,2-1.3c0.6-0.6,1-1.3,1.3-2c0.3-0.7,0.5-1.6,0.5-2.8c0.1-1.2,0.1-1.6,0.1-4.7
						s0-3.5-0.1-4.7c-0.1-1.2-0.3-2.1-0.5-2.8c-0.3-0.8-0.7-1.4-1.3-2c-0.6-0.6-1.3-1-2-1.3c-0.7-0.3-1.6-0.5-2.8-0.5
						C-259,385-259.4,385-262.5,385L-262.5,385z M-263.5,387.1c0.3,0,0.6,0,1,0c3.1,0,3.4,0,4.6,0.1c1.1,0.1,1.7,0.2,2.1,0.4
						c0.5,0.2,0.9,0.5,1.3,0.9c0.4,0.4,0.6,0.8,0.9,1.3c0.2,0.4,0.3,1,0.4,2.1c0.1,1.2,0.1,1.6,0.1,4.6c0,3.1,0,3.4-0.1,4.6
						c-0.1,1.1-0.2,1.7-0.4,2.1c-0.2,0.5-0.5,0.9-0.9,1.3c-0.4,0.4-0.8,0.6-1.3,0.9c-0.4,0.2-1,0.3-2.1,0.4
						c-1.2,0.1-1.6,0.1-4.6,0.1c-3.1,0-3.4,0-4.6-0.1c-1.1-0.1-1.7-0.2-2.1-0.4c-0.5-0.2-0.9-0.5-1.3-0.9s-0.6-0.8-0.9-1.3
						c-0.2-0.4-0.3-1-0.4-2.1c-0.1-1.2-0.1-1.6-0.1-4.6s0-3.4,0.1-4.6c0.1-1.1,0.2-1.7,0.4-2.1c0.2-0.5,0.5-0.9,0.9-1.3
						c0.4-0.4,0.8-0.6,1.3-0.9c0.4-0.2,1-0.3,2.1-0.4C-266.1,387.1-265.7,387.1-263.5,387.1L-263.5,387.1z M-256.4,389
						c-0.8,0-1.4,0.6-1.4,1.4c0,0.8,0.6,1.4,1.4,1.4s1.4-0.6,1.4-1.4S-255.6,389-256.4,389L-256.4,389z M-262.5,390.6
						c-3.3,0-5.9,2.6-5.9,5.9c0,3.3,2.6,5.9,5.9,5.9c3.3,0,5.9-2.6,5.9-5.9C-256.6,393.2-259.2,390.6-262.5,390.6L-262.5,390.6z
						 M-262.5,392.7c2.1,0,3.8,1.7,3.8,3.8c0,2.1-1.7,3.8-3.8,3.8c-2.1,0-3.8-1.7-3.8-3.8C-266.3,394.4-264.6,392.7-262.5,392.7
						L-262.5,392.7z"/>
				</g>
			</g>
		</g>
	</g>
</g>
</svg>
