<?xml version="1.0" encoding="UTF-8"?>
<svg width="43px" height="43px" viewBox="0 0 43 43" version="1.1" xmlns="http://www.w3.org/2000/svg" xmlns:xlink="http://www.w3.org/1999/xlink">
    <!-- Generator: Sketch 43.1 (39012) - http://www.bohemiancoding.com/sketch -->
    <title>ICON/contact/linedin@3x</title>
    <desc>Created with Sketch.</desc>
    <defs></defs>
    <g id="Page-1" stroke="none" stroke-width="1" fill="none" fill-rule="evenodd">
        <g id="Personal-1" transform="translate(-107.000000, -196.000000)">
            <g id="Contact" transform="translate(15.000000, 79.000000)">
                <g id="ICONS/contact/linedin" transform="translate(92.000000, 117.000000)">
                    <g id="LinkedIN">
                        <path d="M0,21.5 C0,9.62587729 9.62587729,0 21.5,0 C33.3741227,0 43,9.62587729 43,21.5 C43,33.3741227 33.3741227,43 21.5,43 C9.62587729,43 0,33.3741227 0,21.5 Z" id="back" fill="#0077B5"></path>
                        <path d="M15.1938188,17.8072391 L15.1938188,32.4466889 L10.3214487,32.4466889 L10.3214487,17.8072391 L15.1938188,17.8072391 Z M15.5147254,13.2786667 C15.5147254,14.6843236 14.4566483,15.8090823 12.7577311,15.8090823 L12.726594,15.8090823 C11.0908266,15.8090823 10.0333333,14.6843236 10.0333333,13.2786667 C10.0333333,11.8432779 11.123034,10.75 12.7898412,10.75 C14.4566483,10.75 15.4831018,11.8432779 15.5147254,13.2786667 Z M32.7654496,24.0528758 L32.765255,32.4466889 L27.8930794,32.4466889 L27.8930794,24.614575 C27.8930794,22.6473161 27.188019,21.3049123 25.4242004,21.3049123 C24.0781053,21.3049123 23.2763253,22.2098883 22.9241843,23.0839665 C22.7953546,23.39722 22.763731,23.8336761 22.763731,24.271201 L22.763731,32.4470776 L17.890777,32.4470776 C17.890777,32.4470776 17.9549973,19.181318 17.890777,17.8076278 L22.763731,17.8076278 L22.763731,19.881183 C23.4104094,18.884388 24.5686117,17.4634765 27.1555197,17.4634765 C30.3617639,17.4634765 32.7654496,19.55627 32.7654496,24.0528758 Z" id="Shape" fill="#FFFFFF"></path>
                    </g>
                </g>
            </g>
        </g>
    </g>
</svg>