<?xml version="1.0" encoding="UTF-8"?>
<svg width="43px" height="43px" viewBox="0 0 43 43" version="1.1" xmlns="http://www.w3.org/2000/svg" xmlns:xlink="http://www.w3.org/1999/xlink">
    <!-- Generator: Sketch 43.1 (39012) - http://www.bohemiancoding.com/sketch -->
    <title>ICON/contact/location@3x</title>
    <desc>Created with Sketch.</desc>
    <defs>
        <polygon id="path-1" points="8.25864276e-05 0.248085321 19.2851146 0.248085321 19.2851146 27.3245555 8.25864276e-05 27.3245555 8.25864276e-05 0.248085321"></polygon>
    </defs>
    <g id="Page-1" stroke="none" stroke-width="1" fill="none" fill-rule="evenodd">
        <g id="Personal-1" transform="translate(-166.000000, -133.000000)">
            <g id="Contact" transform="translate(15.000000, 79.000000)">
                <g id="ICONS/contact/location" transform="translate(151.000000, 54.000000)">
                    <g id="Location">
                        <ellipse id="Oval" fill="#A90087" cx="21.5" cy="21.5" rx="21.5" ry="21.5"></ellipse>
                        <g id="Page-1" transform="translate(11.727273, 7.818182)">
                            <g id="Group-3" transform="translate(0.000000, 0.022455)">
                                <mask id="mask-2" fill="white">
                                    <use xlink:href="#path-1"></use>
                                </mask>
                                <g id="Clip-2"></g>
                                <path d="M9.64259859,16.4931829 C5.84087004,16.4931829 2.75489052,13.4606983 2.75489052,9.72426824 C2.75489052,5.98810871 5.84087004,2.95562413 9.64259859,2.95562413 C13.4443271,2.95562413 16.5303067,5.98810871 16.5303067,9.72426824 C16.5303067,13.4606983 13.4443271,16.4931829 9.64259859,16.4931829 M9.64259859,0.248058267 C4.31687516,0.248058267 8.25864276e-05,4.49066896 8.25864276e-05,9.72426824 C8.25864276e-05,14.2812466 7.31586364,24.6050589 9.2032388,27.1048499 C9.42567157,27.3978449 9.86503137,27.3978449 10.0819584,27.1048499 C11.9690583,24.6050589 19.2851146,14.2812466 19.2851146,9.72426824 C19.2851146,4.49066896 14.968322,0.248058267 9.64259859,0.248058267" id="Fill-1" fill="#FFFFFF" mask="url(#mask-2)"></path>
                            </g>
                            <path d="M9.64259859,5.68556366 C7.35935915,5.68556366 5.50997375,7.50305241 5.50997375,9.74691245 C5.50997375,11.9907725 7.35935915,13.8079907 9.64259859,13.8079907 C11.925838,13.8079907 13.7752234,11.9907725 13.7752234,9.74691245 C13.7752234,7.50305241 11.925838,5.68556366 9.64259859,5.68556366" id="Fill-4" fill="#FFFFFF"></path>
                        </g>
                    </g>
                </g>
            </g>
        </g>
    </g>
</svg>