<?xml version="1.0" encoding="UTF-8"?>
<svg width="44px" height="43px" viewBox="0 0 44 43" version="1.1" xmlns="http://www.w3.org/2000/svg" xmlns:xlink="http://www.w3.org/1999/xlink">
    <!-- Generator: Sketch 43.1 (39012) - http://www.bohemiancoding.com/sketch -->
    <title>ICON/contact/mail@3x</title>
    <desc>Created with Sketch.</desc>
    <defs></defs>
    <g id="Page-1" stroke="none" stroke-width="1" fill="none" fill-rule="evenodd">
        <g id="Personal-1" transform="translate(-106.000000, -133.000000)">
            <g id="Contact" transform="translate(15.000000, 79.000000)">
                <g id="ICONS/contact/mail" transform="translate(91.000000, 54.000000)">
                    <g id="Mail" transform="translate(0.750000, 0.000000)">
                        <g id="Envelope" fill="#F6A30C">
                            <circle id="Oval" cx="21.5" cy="21.5" r="21.5"></circle>
                        </g>
                        <path d="M21.433233,24.7344479 C20.9795784,24.7344479 20.5259238,24.6372792 20.1370985,24.4427913 L8.95833333,18.837239 L8.95833333,27.6182231 C8.95833333,28.6875302 9.83315267,29.5623496 10.9024599,29.5623496 L31.9640061,29.5623496 C33.0331629,29.5623496 33.9081327,28.6875302 33.9081327,27.6182231 L33.9081327,18.837239 L22.7292171,24.4427913 C22.3403918,24.6372792 21.8868876,24.7344479 21.433233,24.7344479 M33.9081327,16.2774599 L33.9081327,16.7959437 L22.3080523,22.5958335 C21.757229,22.8551506 21.109237,22.8551506 20.5584137,22.5958335 L8.95833333,16.7959437 L8.95833333,16.2774599 C8.95833333,15.2081527 9.83315267,14.3333333 10.9024599,14.3333333 L31.9640061,14.3333333 C33.0331629,14.3333333 33.9081327,15.2081527 33.9081327,16.2774599" id="Page-1" fill="#FFFFFF"></path>
                        <path d="M21.433233,24.7344479 C20.9795784,24.7344479 20.5259238,24.6372792 20.1370985,24.4427913 L8.95833333,18.837239 L8.95833333,27.6182231 C8.95833333,28.6875302 9.83315267,29.5623496 10.9024599,29.5623496 L31.9640061,29.5623496 C33.0331629,29.5623496 33.9081327,28.6875302 33.9081327,27.6182231 L33.9081327,18.837239 L22.7292171,24.4427913 C22.3403918,24.6372792 21.8868876,24.7344479 21.433233,24.7344479 M33.9081327,16.2774599 L33.9081327,16.7959437 L22.3080523,22.5958335 C21.757229,22.8551506 21.109237,22.8551506 20.5584137,22.5958335 L8.95833333,16.7959437 L8.95833333,16.2774599 C8.95833333,15.2081527 9.83315267,14.3333333 10.9024599,14.3333333 L31.9640061,14.3333333 C33.0331629,14.3333333 33.9081327,15.2081527 33.9081327,16.2774599" id="Page-1" fill="#FFFFFF"></path>
                    </g>
                </g>
            </g>
        </g>
    </g>
</svg>