<?xml version="1.0" encoding="UTF-8"?>
<svg width="43px" height="43px" viewBox="0 0 43 43" version="1.1" xmlns="http://www.w3.org/2000/svg" xmlns:xlink="http://www.w3.org/1999/xlink">
    <!-- Generator: Sketch 43.1 (39012) - http://www.bohemiancoding.com/sketch -->
    <title>ICON/contact/phone@3x</title>
    <desc>Created with Sketch.</desc>
    <defs></defs>
    <g id="Page-1" stroke="none" stroke-width="1" fill="none" fill-rule="evenodd">
        <g id="Personal-1" transform="translate(-46.000000, -133.000000)">
            <g id="Contact" transform="translate(15.000000, 79.000000)">
                <g id="ICONS/contact/phone" transform="translate(31.000000, 54.000000)">
                    <g id="Phone">
                        <ellipse id="Viber" fill="#02A4CA" transform="translate(21.066362, 21.066362) scale(1, -1) translate(-21.066362, -21.066362) " cx="21.066362" cy="21.066362" rx="21.066362" ry="21.066362"></ellipse>
                        <path d="M13.2051106,33.5282945 C13.3432009,33.4810478 13.5562028,33.3707836 13.6784985,33.2919953 C14.4279281,32.795704 16.5146686,30.1292656 17.1971207,28.7979685 C17.5875973,28.0378265 17.7177537,27.4745933 17.5955313,27.0570903 C17.469232,26.6080823 17.2602337,26.3717465 16.3253296,25.6194534 C15.9505818,25.3162122 15.5994896,25.005049 15.5443105,24.922329 C15.4022898,24.7175056 15.2878549,24.3157735 15.2878549,24.032191 C15.2918584,23.3744278 15.7178549,22.1810121 16.2780113,21.2632934 C16.7118685,20.5503981 17.4889571,19.636677 18.258185,18.935555 C19.1614997,18.108398 19.9583135,17.5452379 20.8576978,17.1001177 C22.0134646,16.5251039 22.7195795,16.3793736 23.236348,16.6195973 C23.3665044,16.6786904 23.504529,16.7574787 23.5479827,16.792879 C23.5873671,16.8283524 23.891141,17.1986086 24.2225009,17.6081823 C24.8614991,18.4117123 25.0074503,18.5416718 25.445311,18.6913338 C26.0015371,18.8803864 26.5695543,18.8292153 27.1415018,18.5377474 C27.5754322,18.3132214 28.5221348,17.7263685 29.1335399,17.3010094 C29.9382145,16.7377761 31.6580754,15.3356053 31.8908755,15.055918 C32.3010772,14.5517778 32.3721242,13.9058976 32.0959435,13.1929292 C31.8040338,12.4407092 30.6679922,11.0306237 29.8751088,10.4279927 C29.1572027,9.88445469 28.6483682,9.67577265 27.9777731,9.64423101 C27.4255507,9.61667957 27.1967541,9.66392626 26.4906392,9.95539416 C20.952393,12.2358858 16.530456,15.6388465 13.0196946,20.3140916 C11.1854793,22.7560552 9.78905156,25.2886096 8.83441497,27.9157013 C8.27826213,29.4478243 8.25066894,30.1134729 8.70818893,30.8972638 C8.90546195,31.228093 9.74566364,32.0473573 10.3570687,32.5042215 C11.3748183,33.2604683 11.8442027,33.5401263 12.2189504,33.6188781 C12.4753402,33.6740321 12.9210617,33.6307099 13.2051106,33.5282945 L13.2051106,33.5282945 Z" id="Path" fill="#FFFFFF" transform="translate(20.325096, 21.640217) rotate(-90.000000) translate(-20.325096, -21.640217) "></path>
                    </g>
                </g>
            </g>
        </g>
    </g>
</svg>