<?xml version="1.0" encoding="UTF-8"?>
<svg width="43px" height="43px" viewBox="0 0 43 43" version="1.1" xmlns="http://www.w3.org/2000/svg" xmlns:xlink="http://www.w3.org/1999/xlink">
    <!-- Generator: Sketch 43.1 (39012) - http://www.bohemiancoding.com/sketch -->
    <title>ICON/contact/twitter@3x</title>
    <desc>Created with Sketch.</desc>
    <defs></defs>
    <g id="Page-1" stroke="none" stroke-width="1" fill="none" fill-rule="evenodd">
        <g id="Personal-1" transform="translate(-166.000000, -196.000000)">
            <g id="Contact" transform="translate(15.000000, 79.000000)">
                <g id="ICONS/contact/twitter" transform="translate(151.000000, 117.000000)">
                    <g id="Twitter">
                        <path d="M0,21.5 C0,9.62587729 9.62587729,0 21.5,0 C33.3741227,0 43,9.62587729 43,21.5 C43,33.3741227 33.3741227,43 21.5,43 C9.62587729,43 0,33.3741227 0,21.5 Z" id="back" fill="#55ACEE"></path>
                        <path d="M20.8560774,17.4754693 L20.9011938,18.2194178 L20.1492535,18.1283221 C17.4121909,17.7791218 15.0210208,16.5948772 12.990782,14.6059536 L11.9982209,13.6190832 L11.7425612,14.3478491 C11.2011642,15.9723897 11.5470567,17.688026 12.6749671,18.8419053 C13.2765193,19.4795755 13.1411701,19.5706712 12.1034925,19.1911057 C11.7425612,19.0696447 11.4267463,18.9785489 11.3966686,19.0240968 C11.291397,19.1303752 11.6523283,20.5119938 11.9380656,21.0585682 C12.3290746,21.8176994 13.1261313,22.5616479 13.998382,23.0019439 L14.7352835,23.3511442 L13.8630328,23.3663269 C13.0208596,23.3663269 12.990782,23.3815095 13.0810149,23.7003446 C13.381791,24.687215 14.5698566,25.734816 15.8932715,26.1902947 L16.8256775,26.5091297 L16.013582,26.9949736 C14.8104775,27.6933743 13.3968298,28.0881225 11.9831821,28.1184877 C11.3064358,28.1336703 10.75,28.1944008 10.75,28.2399487 C10.75,28.3917749 12.5847343,29.2420018 13.6524895,29.5760195 C16.8557551,30.5628899 20.6605729,30.1377765 23.5179459,28.4525054 C25.5481847,27.2530782 27.5784234,24.8694065 28.5258682,22.5616479 C29.0371876,21.3318554 29.548507,19.0848273 29.548507,18.0068611 C29.548507,17.3084605 29.5936234,17.2173647 30.4357965,16.3823205 C30.9320771,15.8964766 31.3982801,15.3650848 31.4885129,15.2132586 C31.638901,14.9247887 31.6238621,14.9247887 30.8568831,15.1828933 C29.5785846,15.638372 29.3981189,15.5776415 30.0297488,14.8944235 C30.4959517,14.4085796 31.0523875,13.5279874 31.0523875,13.2698829 C31.0523875,13.224335 30.8268055,13.3002481 30.5711458,13.4368917 C30.3004473,13.5887179 29.698895,13.8164573 29.2477309,13.9531009 L28.4356354,14.2112055 L27.6987339,13.7101789 C27.2926861,13.4368917 26.7212115,13.1332393 26.4204354,13.0421435 C25.6534563,12.8295868 24.4804295,12.8599521 23.7886444,13.102874 C21.9087937,13.786092 20.7207281,15.5472762 20.8560774,17.4754693 Z" id="Shape" fill="#FFFFFF"></path>
                    </g>
                </g>
            </g>
        </g>
    </g>
</svg>