<?xml version="1.0" encoding="utf-8"?>
<!-- Generator: Adobe Illustrator 22.1.0, SVG Export Plug-In . SVG Version: 6.00 Build 0)  -->
<svg version="1.1" id="Layer_1" xmlns="http://www.w3.org/2000/svg" xmlns:xlink="http://www.w3.org/1999/xlink" x="0px" y="0px"
	 viewBox="0 0 1000 1000" style="enable-background:new 0 0 1000 1000;" xml:space="preserve">
<style type="text/css">
	.st0{fill:#2E1B9A;}
</style>
<g>
	<g transform="translate(0.000000,512.000000) scale(0.100000,-0.100000)">
		<path class="st0" d="M4525.6,5007.3C3371.8,4888.5,2338.8,4399.8,1528.1,3589C750,2810.9,286.1,1866.1,123.2,725.7
			c-15.3-103.5-24.9-350.7-23-613.3c0-358.4,7.7-490.6,42.2-709.1c86.2-542.4,224.2-979.4,465.7-1464.3
			c477.2-964,1238.1-1724.9,2204-2204c649.7-323.9,1286-484.9,2020.1-511.7c795.4-30.7,1558.2,130.3,2280.7,479.1
			c525.1,253,879.7,502.1,1291.8,902.7c446.6,435.1,718.7,808.8,988.9,1360.8c88.2,180.1,191.7,415.9,230,527.1
			c435.1,1266.8,354.6,2602.7-228.1,3785.2c-260.6,525.1-513.6,881.6-918,1291.8C7712.8,4342.4,6785.2,4810,5685,4980.6
			C5443.6,5016.9,4770.9,5034.2,4525.6,5007.3z M5298,3246c966-101.6,1805.4-613.3,2326.7-1418.3
			c375.6-578.8,559.6-1295.6,498.3-1945.3c-28.7-308.6-65.2-483-157.2-759c-308.6-927.6-1044.5-1663.6-1972.1-1972.1
			c-276-92-450.4-128.4-759-157.2c-649.7-61.3-1366.5,122.7-1945.3,498.3c-1420.2,920-1855.2,2798.2-983.2,4245.2
			C2927.2,2772.6,4113.5,3370.6,5298,3246z"/>
		<path class="st0" d="M4832.1,2604.2c-147.1-93.9-297.7-318.9-421.6-630.8c-60.3-150.6-194.9-653.8-194.9-726.4v-44.3H4997h781.4
			l-12.4,85.1c-23,156-129.3,545.7-193.1,701.7C5351.3,2540.4,5083.8,2763.7,4832.1,2604.2z"/>
		<path class="st0" d="M4151.8,2515.7c-522.7-184.2-999.3-563.5-1304-1038.3c-47.8-76.2-138.2-248-138.2-265.8
			c0-5.4,253.4-7.1,561.7-5.4l561.6,5.4l15.9,79.7c86.8,464.2,249.8,942.6,411,1201.2c24.8,40.8,44.3,74.4,40.8,74.4
			C4297,2567.1,4231.5,2544.1,4151.8,2515.7z"/>
		<path class="st0" d="M5730.4,2490.9c136.5-217.9,294.1-652,372.1-1022.4c26.6-122.2,49.6-232.1,54.9-242.8
			c5.4-17.7,132.9-23,565.2-23c306.6,0,558.1,5.4,558.1,10.6c0,37.3-152.4,290.6-258.7,432.3c-317.2,421.6-765.4,738.8-1261.5,896.5
			l-76.2,23L5730.4,2490.9z"/>
		<path class="st0" d="M2551.8,807.6c-58.4-150.6-81.5-350.8-81.5-685.7s23-533.3,79.7-682.2l17.7-44.3H3179h613l-14.1,164.7
			c-17.7,209.1-17.7,891.2,0,1116.2l12.4,171.9H3179h-611.3L2551.8,807.6z"/>
		<path class="st0" d="M4157.1,809.4c-7.1-23-19.5-186-31.9-363.2c-15.9-249.8-15.9-398.6,0-646.7c12.4-179,24.8-342,31.9-363.2
			l8.9-40.8h829.2h829.2l8.9,40.8c33.7,127.6,51.4,703.4,31.9,1008.1c-12.4,179-24.8,342-31.9,365l-8.9,39h-829.2H4166L4157.1,809.4
			z"/>
		<path class="st0" d="M6212.3,676.5c8.9-95.7,14.1-345.5,14.1-554.6c0-209-5.3-458.9-14.1-552.8L6200-604.5h611.3h611.3l16,40.8
			C7497-413.1,7520-212.9,7520,122s-23,535.1-81.5,685.7l-16,40.8h-611.3H6200L6212.3,676.5z"/>
		<path class="st0" d="M2709.6-967.7c0-28.4,106.3-212.6,202-352.6c226.8-334.8,561.7-627.2,923.1-811.5
			c205.5-102.8,425.3-187.8,442.9-171.9c5.3,7.1-17.7,58.4-53.2,116.9c-131.1,221.5-264,609.5-350.8,1024.1l-40.8,194.9l-561.6,5.3
			C2962.9-960.6,2709.6-962.3,2709.6-967.7z"/>
		<path class="st0" d="M4224.4-1042.1c21.3-148.8,127.6-540.4,186-687.4c171.9-435.9,384.5-682.2,584.7-682.2
			c200.2,0,412.9,246.3,584.7,682.2c58.5,147.1,164.8,538.6,186,687.4l12.4,83.3h-783.1H4212L4224.4-1042.1z"/>
		<path class="st0" d="M6157.4-980.1c-5.3-12.4-28.4-122.3-54.9-244.5C6024.6-1595,5866.9-2029,5732.3-2247l-46-72.7l76.2,23
			c187.8,58.4,428.8,170.1,586.5,271.1c278.2,177.2,552.7,442.9,735.3,710.5c90.3,134.7,196.6,320.7,196.6,347.3
			c0,5.3-251.5,8.9-558.1,8.9C6290.3-958.8,6162.8-964.1,6157.4-980.1z"/>
	</g>
</g>
</svg>
