<svg xmlns="http://www.w3.org/2000/svg" viewBox="0 0 82 82"><defs><style>.a{fill:#0756a5;}</style></defs><path class="a" d="M39.26,24c0,12.93-7.21,23.41-16.1,23.41S7.05,37,7.05,24,14.26.63,23.16.63,39.26,11.11,39.26,24Z"/><polygon class="a" points="27.65 81.38 18.66 81.38 20.14 47.08 26.18 47.08 27.65 81.38"/><polygon class="a" points="64.82 81.38 55.82 81.38 57.3 47.08 63.34 47.08 64.82 81.38"/><rect class="a" x="62.08" y="0.7" width="3.7" height="33.58"/><rect class="a" x="54.86" y="0.62" width="3.7" height="33.58"/><path class="a" d="M75,32.8a14.63,14.63,0,1,1-29.26,0L47,.7h4.18V32.8H69.45V.56h4.18Z"/></svg>