<svg xmlns="http://www.w3.org/2000/svg" viewBox="0 0 57 56"><defs><style>.a{fill:#262262;fill-rule:evenodd;}.b,.c{fill:none;stroke-width:0.25px;}.b{stroke:#262262;}.c{stroke:#000;}</style></defs><title>son</title><path class="a" d="M42.57,47.17l-7.15-4.29A8.22,8.22,0,0,0,31,41.62H25.74a8.62,8.62,0,0,0-4.49,1.26L14.46,47.1a23.86,23.86,0,1,1,28.11.07M.84,27.89A27.72,27.72,0,1,0,28.56.17,27.77,27.77,0,0,0,.84,27.89Z"/><path class="b" d="M42.57,47.17l-7.15-4.29A8.22,8.22,0,0,0,31,41.62H25.74a8.62,8.62,0,0,0-4.49,1.26L14.46,47.1a23.86,23.86,0,1,1,28.11.07Zm-14-47A27.72,27.72,0,1,0,56.27,27.89,27.74,27.74,0,0,0,28.56.17Z"/><path class="a" d="M28.56,15.86A9.14,9.14,0,0,0,19.41,25V30.6a9.15,9.15,0,1,0,18.29,0V25a9.14,9.14,0,0,0-9.14-9.15"/><path class="c" d="M28.56,15.86A9.14,9.14,0,0,0,19.41,25V30.6a9.15,9.15,0,1,0,18.29,0V25A9.14,9.14,0,0,0,28.56,15.86Z"/></svg>