<svg xmlns="http://www.w3.org/2000/svg" viewBox="0 0 82 82"><defs><style>.a{fill:#0756a5;}</style></defs><path class="a" d="M71.33.59C55.86,6.17,40,11.38,24.85,17.29V61.08s7.53,12.54,8.24,9.73c.49-1.91.25-5.74.28-10.29,0-3.73,0-7.89,0-10.62V31.46c10-3.38,19.62-7.11,29.73-10.4L71.5,51.94C71.5,34.82,71.66,16.4,71.33.59Zm-8.2,17.48L33.4,28.47V24.4L63.13,14.07Zm0-6.89L33.4,21.58V17.51L63.13,7.18Z"/><circle class="a" cx="20.83" cy="68.33" r="12.51" transform="translate(-49.2 82.43) rotate(-84.43)"/><path class="a" d="M71.67,21.36V39.8c0,2.73,0,6.88,0,10.62,0,4.55.22,8.37-.27,10.29C70.64,63.52,63.12,51,63.12,51V7.18"/><circle class="a" cx="59.1" cy="58.23" r="12.51"/></svg>