<?xml version="1.0" encoding="utf-8"?>
<!-- Generator: Adobe Illustrator 24.0.1, SVG Export Plug-In . SVG Version: 6.00 Build 0)  -->
<svg version="1.1" id="Layer_1" xmlns="http://www.w3.org/2000/svg" xmlns:xlink="http://www.w3.org/1999/xlink" x="0px" y="0px"
	 viewBox="0 0 18 18" style="enable-background:new 0 0 18 18;" xml:space="preserve">
<style type="text/css">
	.st0{fill:none;stroke:#E0E0E0;stroke-width:2;}
	.st1{fill:none;stroke:#E0E0E0;stroke-width:2;stroke-linecap:round;}
	.st2{fill:#2E21B5;}
	.st3{fill:none;stroke:#FF0000;stroke-miterlimit:10;}
	.st4{fill:#CCCCCC;stroke:#FFFFFF;stroke-width:0.5;stroke-linecap:round;stroke-linejoin:round;}
	.st5{fill:#2E21B5;stroke:#2E21B5;stroke-width:0.25;stroke-linejoin:bevel;}
</style>
<title>Button/Minus@3x</title>
<desc>Created with Sketch.</desc>
<g id="Page-1">
	<g id="Profile" transform="translate(-328.000000, -92.000000)">
		<g id="Button_x2F_Plus_x2F_Small" transform="translate(327.000000, 91.000000)">
			<g id="Group-2" transform="translate(2.000000, 2.000000)">
				<circle id="Oval" class="st0" cx="-288" cy="396" r="8"/>
			</g>
			<path id="line" class="st1" d="M-282.8,398.1l-6.2-0.1"/>
			<path id="line_1_" class="st1" d="M-285.9,401.2l-0.1-6.2"/>
		</g>
	</g>
</g>
<g>
	<polygon class="st2" points="9,8.6 0,5.3 9,3.4 18,5.3 	"/>
	<path class="st2" d="M9,9.5L3.1,7.3V13c0,0,5.3,2,11.9,0V7.3L9,9.5z"/>
	<path class="st3" d="M9,6"/>
	<path class="st3" d="M3.2,7.3"/>
	<path class="st4" d="M2.8,6.5C3.9,6,5.8,5.6,9,5.6"/>
	<ellipse transform="matrix(0.1949 -0.9808 0.9808 0.1949 -9.6877 11.549)" class="st2" cx="2.2" cy="11.7" rx="0.7" ry="0.6"/>
	<g>
		<path class="st5" d="M2.1,9.8C1.7,8.6,1.3,7.3,2.8,6.5L2.7,6.4C0.9,7.2,1.4,8.6,1.9,9.8c0.2,0.6,0.5,1.2,0.4,1.7h0.2
			C2.5,11,2.3,10.4,2.1,9.8z"/>
	</g>
	<polygon class="st2" points="2.3,14.6 1.1,14.4 1.8,12 2.4,12.1 	"/>
	<polyline class="st2" points="2.8,6.6 3.1,6.5 2.7,6.3 2.2,6.6 	"/>
</g>
</svg>
