<svg xmlns="http://www.w3.org/2000/svg" viewBox="0 0 18 18"><defs><style>.a,.b,.c{fill:#ccc;}.b{stroke:#fff;stroke-linecap:round;stroke-linejoin:round;stroke-width:0.5px;}.c{stroke:#ccc;stroke-linejoin:bevel;stroke-width:0.25px;}</style></defs><title>education</title><polygon class="a" points="9 8.6 0 5.3 9 3.4 18 5.3 9 8.6"/><path class="a" d="M9,9.5,3.1,7.3V13A20,20,0,0,0,15,13V7.3Z"/><path class="b" d="M2.8,6.5A15.65,15.65,0,0,1,9,5.6"/><ellipse class="a" cx="2.19" cy="11.68" rx="0.7" ry="0.6" transform="translate(-9.69 11.55) rotate(-78.76)"/><path class="c" d="M2.1,9.8c-.4-1.2-.8-2.5.7-3.3l-.1-.1c-1.8.8-1.3,2.2-.8,3.4a3.81,3.81,0,0,1,.4,1.7h.2A5.93,5.93,0,0,0,2.1,9.8Z"/><polygon class="a" points="2.3 14.6 1.1 14.4 1.8 12 2.4 12.1 2.3 14.6"/><polyline class="a" points="2.8 6.6 3.1 6.5 2.7 6.3 2.2 6.6"/></svg>