<svg xmlns="http://www.w3.org/2000/svg" viewBox="0 0 600 600"><defs><style>.a{fill:#0756a5;}.b{fill:#fff;}</style></defs><path class="a" d="M538.5,195.85V547.6H58.37V195.85ZM480,248c0-11.12-1.67-19.84-3.79-19.84H422c-2.13,0-3.78,8.72-3.78,19.84s1.65,19.81,3.78,19.81H476.2C478.32,267.78,480,259.1,480,248ZM480,332c0-11.14-1.67-19.86-3.79-19.86H422c-2.13,0-3.78,8.72-3.78,19.86s1.65,19.83,3.78,19.83H476.2C478.32,351.87,480,343.15,480,332Zm0,79.34c0-11.12-1.67-19.83-3.79-19.83H422c-2.13,0-3.78,8.71-3.78,19.83s1.65,19.85,3.78,19.85H476.2C478.32,431.23,480,422.53,480,411.38Zm0,79.35c0-11.13-1.67-19.85-3.79-19.85H422c-2.13,0-3.78,8.72-3.78,19.85s1.65,19.84,3.78,19.84H476.2C478.32,510.57,480,501.86,480,490.73ZM380.12,248c0-11.12-1.63-19.84-3.76-19.84H322.18c-2.12,0-3.78,8.72-3.78,19.84s1.66,19.81,3.78,19.81h54.18C378.49,267.78,380.12,259.1,380.12,248Zm0,163.41c0-11.12-1.63-19.83-3.76-19.83H322.18c-2.12,0-3.78,8.71-3.78,19.83s1.66,19.85,3.78,19.85h54.18C378.49,431.23,380.12,422.53,380.12,411.38Zm0,79.35c0-11.13-1.63-19.85-3.76-19.85H322.18c-2.12,0-3.78,8.72-3.78,19.85s1.66,19.84,3.78,19.84h54.18C378.49,510.57,380.12,501.86,380.12,490.73ZM280.27,248c0-11.12-1.63-19.84-3.75-19.84H222.33c-2.12,0-3.77,8.72-3.77,19.84s1.65,19.81,3.77,19.81h54.19C278.64,267.78,280.27,259.1,280.27,248Zm0,163.41c0-11.12-1.63-19.83-3.75-19.83H222.33c-2.12,0-3.77,8.71-3.77,19.83s1.65,19.85,3.77,19.85h54.19C278.64,431.23,280.27,422.53,280.27,411.38Zm0,79.35c0-11.13-1.63-19.85-3.75-19.85H222.33c-2.12,0-3.77,8.72-3.77,19.85s1.65,19.84,3.77,19.84h54.19C278.64,510.57,280.27,501.86,280.27,490.73ZM180.44,332c0-11.14-1.65-19.86-3.78-19.86H122.48c-2.13,0-3.78,8.72-3.78,19.86s1.65,19.83,3.78,19.83h54.18C178.79,351.87,180.44,343.15,180.44,332Zm0,79.34c0-11.12-1.65-19.83-3.78-19.83H122.48c-2.13,0-3.78,8.71-3.78,19.83s1.65,19.85,3.78,19.85h54.18C178.79,431.23,180.44,422.53,180.44,411.38Zm0,79.35c0-11.13-1.65-19.85-3.78-19.85H122.48c-2.13,0-3.78,8.72-3.78,19.85s1.65,19.84,3.78,19.84h54.18C178.79,510.57,180.44,501.86,180.44,490.73Zm-1.83-244c0-11.12-1.64-19.84-3.75-19.84H120.67c-2.11,0-3.78,8.72-3.78,19.84s1.67,19.86,3.78,19.86h54.19C177,266.59,178.61,257.9,178.61,246.73Z"/><path class="a" d="M578,72.12V569.83c0,12.55-8.65,22.32-19.75,22.32H38.62c-10.59,0-19.72-9.77-19.72-21.74V72.12c0-12.51,8.65-22.29,19.72-22.29H139.74v-19c0-12.52,8.69-22.32,19.77-22.32s19.75,9.8,19.75,22.32v19H421v-19c0-12.52,8.68-22.32,19.77-22.32s19.72,9.8,19.72,22.32v19h97.77C569.35,49.83,578,59.61,578,72.12Zm-39,84.06V94.41h-78.5v12.83c0,13.4-8.65,23.88-19.72,23.88S421,120.64,421,107.24V94.41H179.26v12.83c0,13.4-8.69,23.88-19.75,23.88s-19.77-10.48-19.77-23.88V94.41H58.37v61.77ZM538.5,547.6V195.85H58.37V547.6Z"/><rect class="b" x="117" y="227" width="363" height="41"/><rect class="b" x="117" y="312" width="363" height="41"/><rect class="b" x="117" y="391" width="363" height="41"/><rect class="a" x="117" y="470" width="363" height="41"/></svg>