<svg xmlns="http://www.w3.org/2000/svg" viewBox="0 0 120 120"><defs><style>.a{fill:#383838;}</style></defs><path class="a" d="M60,30.22A27.19,27.19,0,0,1,87.3,57.29a26,26,0,0,1-2,9.9L101.28,83A64.06,64.06,0,0,0,120,57.28,64.63,64.63,0,0,0,38.24,20.47L50,32.17A26.87,26.87,0,0,1,60,30.22ZM5.46,15.46,17.92,27.81l2.51,2.49A63.72,63.72,0,0,0,0,57.29,64.73,64.73,0,0,0,83.9,93.34l2.28,2.28,16,15.8,6.94-6.89L12.38,8.58ZM35.61,45.38l8.46,8.37a15.4,15.4,0,0,0-.43,3.51A16.28,16.28,0,0,0,60,73.49h0a15.5,15.5,0,0,0,3.53-.43L72,81.44A27.15,27.15,0,0,1,32.73,57.23,26.66,26.66,0,0,1,35.61,45.38Zm23.51-4.19L76.31,58.24l.11-.85A16.28,16.28,0,0,0,60.08,41.16h0Z"/></svg>