<svg xmlns="http://www.w3.org/2000/svg" viewBox="0 0 16.14 22.25"><defs><style>.a,.c{fill:#ccc;}.b{fill:#fff;}.c{stroke:#fff;stroke-width:0.5px;}</style></defs><title>inbox</title><rect class="a" y="6.29" width="16.14" height="15.95" rx="0.94"/><polygon class="b" points="14.13 17.45 8.06 17.41 2 17.45 2 8.38 14.13 8.38 14.13 17.45"/><circle class="b" cx="8.06" cy="16.99" r="2.09"/><path class="c" d="M7.68,8.47h0a1,1,0,0,1-.76-.35L4.58,5.39A1,1,0,1,1,6.09,4.08l.57.66V1a1,1,0,0,1,2,0V4.8l.61-.72a1,1,0,0,1,1.52,1.31L8.44,8.12A1,1,0,0,1,7.68,8.47Z"/></svg>