<svg xmlns="http://www.w3.org/2000/svg" viewBox="0 0 57 56"><defs><style>.a,.b{fill-rule:evenodd;}.b{fill:#262262;}.c,.d{fill:none;}.c{stroke:#262262;stroke-width:0.28px;}.d{stroke:#000;stroke-width:0.25px;}</style></defs><title>daughter</title><path class="a" d="M47.14,48c-.24-.17-.54-.35-.78-.53a4,4,0,0,1,.78.53"/><path class="b" d="M42.25,47.19,35.11,42.9a8.26,8.26,0,0,0-4.43-1.26H25.42a8.61,8.61,0,0,0-4.48,1.26l-6.8,4.22a23.87,23.87,0,1,1,28.11.07m-14-47A27.72,27.72,0,1,0,56,27.91,27.74,27.74,0,0,0,28.24.19"/><path class="c" d="M42.25,47.19,35.11,42.9a8.26,8.26,0,0,0-4.43-1.26H25.42a8.61,8.61,0,0,0-4.48,1.26l-6.8,4.22a23.87,23.87,0,1,1,28.11.07Zm-14-47A27.72,27.72,0,1,0,56,27.91,27.74,27.74,0,0,0,28.24.19Z"/><path class="b" d="M17.59,39.6h21.3a1.59,1.59,0,0,0,1.35-.75,1.51,1.51,0,0,0,0-1.51A21.1,21.1,0,0,1,38.41,31l-.21-4.76a10,10,0,1,0-19.91,0L18.07,31a21.1,21.1,0,0,1-1.88,6.34,1.53,1.53,0,0,0,0,1.51,1.6,1.6,0,0,0,1.35.75"/><path class="d" d="M17.59,39.6h21.3a1.59,1.59,0,0,0,1.35-.75,1.51,1.51,0,0,0,0-1.51A21.1,21.1,0,0,1,38.41,31l-.21-4.76a10,10,0,1,0-19.91,0L18.07,31a21.1,21.1,0,0,1-1.88,6.34,1.53,1.53,0,0,0,0,1.51A1.6,1.6,0,0,0,17.59,39.6Z"/></svg>