<svg xmlns="http://www.w3.org/2000/svg" viewBox="0 0 811.65 595.73"><defs><style>.a{fill:#0756a5;}</style></defs><path class="a" d="M396.51,0c-32.28,2.69-65.39,8.07-82.58,13.46-12.83,4.13-17.17,6.62-23,13.24-11.79,13.86-60.22,82.57-73.88,104.92-12.21,19.87-13,22.14-13.24,34.15-.21,12.21,0,13,5.8,15.72,7.45,3.73,31.46.63,48.63-6.41,24.62-9.94,56.09-36.21,72.64-61.05l7.25-10.76L363.82,95c14.07-4.56,27.53-8.28,29.8-8.28,7.24,0,94.37,47,142.17,76.78,46.35,28.77,130.79,89,178.8,127.69L739,311.05l8.7-4.76c13.66-7.86,27.93-19.45,46.56-38.08l17.38-17.6L745.84,134.1C709.83,70,679.61,16.76,678.79,15.72c-.83-.83-9.31.62-18.83,2.9-23.39,6-42.63,4.56-89-6C517.36.19,496.47-2.29,453.83-2.08,433.35-1.86,407.69-1,396.51,0Z"/><path class="a" d="M67.66,136.59,0,256.83l10.76,12.62c6,7,15.31,18.63,20.89,25.66,5.59,7.25,10.35,13,10.76,13s5-3.1,9.94-7c27.73-21.1,68.08-9.51,85.47,24.42l5,9.94,9.31-12.63c12-16.35,24.21-23,42.83-23,32.91,0,59.81,26.9,60.22,60.43l.2,14.07H263c11.8,0,32.28,11.59,41.39,23.8,9.1,11.8,14.9,28.77,13.66,40.36l-.62,7.87,9.31,1.44a64.93,64.93,0,0,1,48.84,34.77c9.94,19.45,9.11,40.36-2.48,57.53-3.93,6-6.42,11.38-5.59,12.21s7.66,3.53,15.11,6c49.05,15.72,89.41,19.24,109.06,9.51,10.55-5.37,30.43-24.21,29.18-27.94-.41-1.24-23.8-13.24-52.35-27.1-28.36-13.87-52.36-26.09-53.2-27.53a10.9,10.9,0,0,1,3.53-14.91c5-3.31,6.41-2.69,61.46,24,59.6,29,66.43,31.25,87.54,28.15,13-2.08,22.77-11,26.91-24.63,5.8-19.45,9.93-15.72-62.5-57.53-36.22-20.9-67.47-39.73-69.33-41.81-2.07-1.86-3.72-5-3.72-6.62,0-4.76,8.28-11.79,12.42-10.75,2.07.62,34.55,18.83,72.23,40.56,67.67,39.11,68.29,39.53,80.5,39.53,15.52,0,24.42-3.1,33.11-11.18,8.07-7.45,11.38-17.17,10.35-30.83l-.62-10.14-78.64-47.39c-43.26-26.09-79.89-49.26-81.54-51.53-2.28-3.31-2.28-5.38-.62-9.31,4.76-10.35,10.14-7.86,99.13,45.74L690,397.35l15.52-.61c12.21-.41,17-1.65,22.34-5.38,15.32-11.18,19.66-34.15,9.11-49.87-6.83-10.15-31.67-30.84-86.3-71.61-88.36-66-152.51-106.8-238.61-151.09l-19.24-9.94-19.25,5.8-19.45,5.8L340,138.05c-34.56,43-82.16,68.5-124.17,66.22-16.15-.83-22.35-3.73-30.63-14.9-3.52-4.56-4.34-8.49-4.14-20.49.21-21.94,8.07-37.46,45.74-91.06C236.34,64.37,244,52.57,244,52c0-.83-11.38-3.32-25.25-5.38-33.11-5-49-9.94-67.46-21.11-8.28-5-15.32-9.11-15.52-9.11S104.92,70.36,67.66,136.59Z"/><path class="a" d="M71.87,309.73c-7.44,4.17-34.41,41-37.27,50.64-5.48,20.38,12.71,45.81,36,50,14.25,2.64,21.7-2.63,40.12-27.18,15.12-20.6,16.44-23,16.44-32.87,0-13.59-2.85-21.27-11.63-30.48C103.22,306.89,85,302.72,71.87,309.73Z"/><path class="a" d="M182.74,323.47c-4.56,2.07-17,17.39-43.26,53.19C119.2,404.19,101.4,429.22,100,432.13c-10.14,19.45,8.49,49.26,32.08,51.53,17.8,1.65,20.28-.63,51.32-42.85,52.36-71.19,50.29-67.67,50.29-78.64C233.65,335.47,204.67,313.33,182.74,323.47Z"/><path class="a" d="M245,398.17c-6,3.1-61.05,75.54-66.64,87.75-9.31,20.49,8.7,49.26,32.28,51.53,17.39,1.65,20.08-.61,48.43-39.53,37.88-52.15,36.64-50.08,36.64-62.29,0-13.24-6.21-24.84-17.6-32.7C267.79,395.69,253.71,393.63,245,398.17Z"/><path class="a" d="M307.52,473.3c-7.45,4.56-44.29,55.05-47.19,64.57-4.55,14.91,6,34.77,23.18,43.67,9.73,5,19.66,5,28.15.2,8.06-4.35,45.31-54,48.42-64.57,3.1-10.35-.62-23-10.14-33.52C337.53,469.78,319.94,465.44,307.52,473.3Z"/><path class="a" d="M206.37,150.63s-23,55.6,34.14,32.24c0,0,26.62-9.55,33.31-15.65"/></svg>