<svg xmlns="http://www.w3.org/2000/svg" viewBox="0 0 24 24"><defs><style>.a{fill:#0756a5;}.b{fill:none;stroke-width:2px;}.b,.d{stroke:#0756a5;stroke-miterlimit:10;}.c{fill:#fff;}.d{fill:#2e21b5;stroke-linecap:round;stroke-width:0.91px;}</style></defs><polygon class="a" points="1 20.1 0.9 12.7 16.8 10.4 0.9 8.4 0.8 1 23.2 10.4 1 20.1"/><circle class="b" cx="18" cy="17" r="4.4"/><path class="c" d="M18,12.6A4.4,4.4,0,1,1,13.6,17,4.37,4.37,0,0,1,18,12.6m0-1.1A5.48,5.48,0,0,0,12.5,17a5.5,5.5,0,0,0,11,0A5.48,5.48,0,0,0,18,11.5Z"/><line class="d" x1="19.7" y1="15.3" x2="17.9" y2="16.5"/><line class="d" x1="17.9" y1="16.6" x2="17.9" y2="19.7"/></svg>