<?xml version="1.0" encoding="utf-8"?>
<!-- Generator: Adobe Illustrator 24.0.3, SVG Export Plug-In . SVG Version: 6.00 Build 0)  -->
<svg version="1.1" id="Layer_1" xmlns="http://www.w3.org/2000/svg" xmlns:xlink="http://www.w3.org/1999/xlink" x="0px" y="0px"
	 viewBox="0 0 24 24" style="enable-background:new 0 0 24 24;" xml:space="preserve">
<style type="text/css">
	.st0{fill:#2E21B5;}
	.st1{fill:none;stroke:#2E21B5;stroke-width:2;stroke-miterlimit:10;}
	.st2{fill:#FFFFFF;}
	.st3{fill:none;stroke:#2E21B5;stroke-width:0.9055;stroke-linecap:round;stroke-miterlimit:10;}
	.st4{fill:none;stroke:#000000;stroke-width:1.8909;stroke-linecap:round;stroke-miterlimit:10;}
	.st5{fill:none;stroke:#000000;stroke-width:2.0414;stroke-linecap:round;stroke-miterlimit:10;}
	.st6{fill:none;stroke:#FFFFFF;stroke-width:2.0414;stroke-linecap:round;stroke-miterlimit:10;}
	.st7{fill:none;stroke:#2E21B5;stroke-width:0.906;stroke-linecap:round;stroke-miterlimit:10;}
</style>
<g>
	<polygon class="st0" points="1,20.1 0.9,12.7 16.8,10.4 0.9,8.4 0.8,1 23.2,10.4 	"/>
</g>
<g>
	<g>
		<circle class="st1" cx="18" cy="17" r="4.4"/>
		<path class="st2" d="M18,12.6c2.4,0,4.4,2,4.4,4.4s-2,4.4-4.4,4.4s-4.4-2-4.4-4.4S15.5,12.6,18,12.6 M18,11.5
			c-3,0-5.5,2.4-5.5,5.5s2.4,5.5,5.5,5.5s5.5-2.4,5.5-5.5S21,11.5,18,11.5L18,11.5z"/>
	</g>
	<line class="st3" x1="19.7" y1="15.3" x2="17.9" y2="16.5"/>
	<line class="st3" x1="18" y1="16.6" x2="18" y2="19.7"/>
</g>
</svg>
