<svg xmlns="http://www.w3.org/2000/svg" viewBox="0 0 120 120"><defs><style>.a{fill:#eb3296;}.b{fill:none;stroke:#eb3296;stroke-miterlimit:10;stroke-width:9px;}</style></defs><path class="a" d="M108.5,44a1,1,0,0,1,1,1V75a1,1,0,0,1-1,1h-30a1,1,0,0,1-1-1V45a1,1,0,0,1,1-1h30m0-9h-30a10,10,0,0,0-10,10V75a10,10,0,0,0,10,10h30a10,10,0,0,0,10-10V45a10,10,0,0,0-10-10Z"/><polyline class="b" points="23.5 18 53 18 53 102 23.5 102"/><line class="b" x1="23.5" y1="60" x2="74.5" y2="60"/><path class="a" d="M16.5,54a6,6,0,1,1-6,6,6,6,0,0,1,6-6m0-9a15,15,0,1,0,15,15,15,15,0,0,0-15-15Z"/><path class="a" d="M16.5,12a6,6,0,1,1-6,6,6,6,0,0,1,6-6m0-9a15,15,0,1,0,15,15,15,15,0,0,0-15-15Z"/><path class="a" d="M16.5,96a6,6,0,1,1-6,6,6,6,0,0,1,6-6m0-9a15,15,0,1,0,15,15,15,15,0,0,0-15-15Z"/></svg>