<svg xmlns="http://www.w3.org/2000/svg" viewBox="0 0 120 120"><defs><style>.a{fill:#f05a28;}</style></defs><path class="a" d="M9.3,60.49a47.4,47.4,0,0,1,25.49-42.1l1.71,6.26,15.77-16L30.56,3l1.8,6.53A56.54,56.54,0,0,0,7.86,88.75l7.79-4.51A47.56,47.56,0,0,1,9.3,60.49Z"/><path class="a" d="M56.8,108a47.07,47.07,0,0,1-25.45-7.38L35.9,96,14.2,90.32,20.12,112l4.78-4.84A56,56,0,0,0,56.8,117a56.71,56.71,0,0,0,48.94-28.24L98,84.24A47.7,47.7,0,0,1,56.8,108Z"/><path class="a" d="M104.3,60.49c0,.66,0,1.32-.06,2L98,60.84l6,21.63,15.76-16-6.58-1.71c.11-1.43.18-2.87.18-4.3A56.56,56.56,0,0,0,56.8,4v9A47.56,47.56,0,0,1,104.3,60.49Z"/><path class="a" d="M45.12,47.14v-.93H62.88V80c0,9.19,1.07,12.72,5.42,12.72,2.06,0,5.76-1.39,5.76-7.71v-.55h.82V85c0,6.41-2.79,8.92-9.62,8.92C56.88,93.94,52.19,90,52.19,80V47.14ZM57.37,39.8c-3.37,0-6.09-3.06-6.09-6.77s2.72-7,6.09-7,6.08,3.16,6.08,7S60.74,39.8,57.37,39.8Z"/></svg>