<svg xmlns="http://www.w3.org/2000/svg" viewBox="0 0 120 120"><defs><style>.a{fill:#970dc9;}</style></defs><path class="a" d="M104.5,117h-89A14.51,14.51,0,0,1,1,102.46V25.19a14.51,14.51,0,0,1,14.5-14.5h89A14.51,14.51,0,0,1,119,25.19v77.27A14.51,14.51,0,0,1,104.5,117Zm-89-97.27a5.5,5.5,0,0,0-5.5,5.5v77.27a5.51,5.51,0,0,0,5.5,5.5h89a5.51,5.51,0,0,0,5.5-5.5V25.19a5.5,5.5,0,0,0-5.5-5.5Z"/><rect class="a" x="7" y="33.5" width="107" height="9"/><rect class="a" x="86.25" y="3.04" width="13.5" height="11.65" rx="4"/><rect class="a" x="20.25" y="3.04" width="13.5" height="11.65" rx="4"/></svg>