<svg xmlns="http://www.w3.org/2000/svg" viewBox="0 0 120 120"><defs><style>.a{fill:#ccc;}</style></defs><path class="a" d="M105.57,66a38.86,38.86,0,0,0,.31-6c0-2.1-.31-3.9-.31-6l12.88-9.9a2.76,2.76,0,0,0,.67-3.84l-.05-.06L106.8,19.5a3,3,0,0,0-3.68-1.2l-15.35,6a44.72,44.72,0,0,0-10.43-6L75.19,2.4A3.28,3.28,0,0,0,72.12,0H47.57a3.27,3.27,0,0,0-3.06,2.4L42.05,18.3a52.26,52.26,0,0,0-10.43,6l-15.34-6a2.87,2.87,0,0,0-3.69,1.2L.31,40.2a3.63,3.63,0,0,0,.62,3.9L14.12,54c0,2.1-.3,3.9-.3,6s.3,3.9.3,6L1.24,75.9a2.75,2.75,0,0,0-.66,3.84l0,.06,12.27,20.7a3,3,0,0,0,3.69,1.2l15.34-6a44.72,44.72,0,0,0,10.43,6l2.46,15.9a3,3,0,0,0,3.06,2.4H72.42a3.28,3.28,0,0,0,3.07-2.4L78,101.7a51.71,51.71,0,0,0,10.43-6l15.35,6a2.87,2.87,0,0,0,3.68-1.2l12.27-20.7a3.6,3.6,0,0,0-.61-3.9ZM59.82,81a21.36,21.36,0,1,1,.25,0h-.25Z"/></svg>