<svg xmlns="http://www.w3.org/2000/svg" viewBox="0 0 24 24"><defs><style>.a{fill:#ccc;}.b{fill:#fff;}</style></defs><circle class="a" cx="12" cy="12" r="12"/><path class="b" d="M17.26,10.36H13.64V6.9A1.54,1.54,0,0,0,12.2,5.26H12A1.54,1.54,0,0,0,10.36,6.7a.67.67,0,0,0,0,.2v3.46H6.74A1.53,1.53,0,0,0,5.1,11.8a.67.67,0,0,0,0,.2,1.53,1.53,0,0,0,1.44,1.64h3.82v3.62A1.53,1.53,0,0,0,11.8,18.9a.67.67,0,0,0,.2,0,1.53,1.53,0,0,0,1.64-1.44.67.67,0,0,0,0-.2V13.64h3.62A1.53,1.53,0,0,0,18.9,12.2a.67.67,0,0,0,0-.2,1.53,1.53,0,0,0-1.44-1.64Z"/></svg>