<svg xmlns="http://www.w3.org/2000/svg" viewBox="0 0 120 120"><defs><style>.a{fill:#ffc400;}</style></defs><path class="a" d="M90.09,102.5a5.51,5.51,0,0,1-5.5,5.5H15.16a5.51,5.51,0,0,1-5.5-5.5v-85a5.51,5.51,0,0,1,5.5-5.5H84.59a5.51,5.51,0,0,1,5.5,5.5V28.34l9-9V17.5A14.52,14.52,0,0,0,84.59,3H15.16A14.52,14.52,0,0,0,.66,17.5v85A14.52,14.52,0,0,0,15.16,117H84.59a14.52,14.52,0,0,0,14.5-14.5V63.18l-9,9Z"/><path class="a" d="M67.37,86.47,47.85,96.6a3,3,0,0,1-4.05-4L53.94,73Z"/><path class="a" d="M104.21,22.76l-46,46L71.62,82.22l46-46a6,6,0,0,0,0-8.48l-5-4.95A6,6,0,0,0,104.21,22.76Z"/></svg>