<svg xmlns="http://www.w3.org/2000/svg" viewBox="0 0 191 226"><defs><style>.a{fill:#fff;}</style></defs><title>grapes</title><path class="a" d="M154.5,105.51a23,23,0,1,1,22.8-23,22.92,22.92,0,0,1-22.8,23m-29.79,53.8a23,23,0,1,1,22.8-23,22.93,22.93,0,0,1-22.8,23M95,211.94a23,23,0,1,1,22.8-23,22.93,22.93,0,0,1-22.8,23M64.15,159.31a23,23,0,1,1,22.81-23,22.92,22.92,0,0,1-22.81,23M95,59.58a23,23,0,1,1-22.81,23A22.91,22.91,0,0,1,95,59.58m95.58,23A36.26,36.26,0,0,0,154.5,46.19a35.77,35.77,0,0,0-28.62,14.29L124.76,62l-1.15-1.47A35.72,35.72,0,0,0,95,46.19,36.26,36.26,0,0,0,58.92,82.54L58.85,84A22.81,22.81,0,1,1,34.66,59.62V46.21a36.36,36.36,0,0,0-4,72.23l1.91.29-.84,1.75a36.31,36.31,0,0,0,29,52l2,.18-.78,1.83a36.08,36.08,0,1,0,66.13-.15l-.77-1.75,1.9-.25a36.28,36.28,0,0,0,28.08-51.65l-.87-1.83,2-.23a36.18,36.18,0,0,0,32.21-36.13M108.68,23.92a33.66,33.66,0,0,1,19.81-10.61L127.06,0A47,47,0,0,0,98.88,14.86,47.71,47.71,0,0,0,88.2,34.35h14a33.89,33.89,0,0,1,6.48-10.43"/></svg>