<svg xmlns="http://www.w3.org/2000/svg" viewBox="0 0 120 120"><defs><style>.a{fill:#03d081;}.b{fill:none;stroke:#03d081;stroke-miterlimit:10;stroke-width:9px;}</style></defs><path class="a" d="M97.5,100a1,1,0,0,1,1,1v7h-77v-7a1,1,0,0,1,1-1h75m0-9h-75a10,10,0,0,0-10,10v16h95V101a10,10,0,0,0-10-10Z"/><path class="a" d="M60,18.67,89.27,60.38,70.9,91H49.1L30.73,60.38,60,18.67M60,3,20,60l24,40H76l24-40L60,3Z"/><path class="a" d="M60,60a5,5,0,1,1-5,5,5,5,0,0,1,5-5m0-9A14,14,0,1,0,74,65,14,14,0,0,0,60,51Z"/><line class="b" x1="60" y1="11.5" x2="60" y2="55.5"/></svg>