<svg xmlns="http://www.w3.org/2000/svg" viewBox="0 0 24 24"><defs><style>.a{fill:none;}.b{fill:#fff;}</style></defs><path class="a" d="M12.53,13.88h0l-.44,0-.56,0h0C10,14,7.7,14.59,6.66,15.64a2.76,2.76,0,0,0-.23.27l0,0a1.91,1.91,0,0,0-.16.27.42.42,0,0,0,0,.1,1.43,1.43,0,0,0-.08.22,1.86,1.86,0,0,0,0,.34v1.5h12v-1.5a2,2,0,0,0,0-.35,2.34,2.34,0,0,0-.09-.24l0-.08a1.81,1.81,0,0,0-.19-.29h0a3.33,3.33,0,0,0-.25-.28h0C16.4,14.55,14.09,14,12.53,13.88Z"/><path class="a" d="M15.59,9.36a3.12,3.12,0,0,1-.05.44A2.48,2.48,0,1,0,15,7.45,3.39,3.39,0,0,1,15.59,9.36Z"/><path class="a" d="M12.09,12.36a3,3,0,0,0,3-3,3.13,3.13,0,0,0-.16-.93h0a3.06,3.06,0,0,0-1-1.42.39.39,0,0,1-.1-.08l-.24-.15a2.53,2.53,0,0,0-.23-.12l-.22-.1-.33-.1-.18,0a2.51,2.51,0,0,0-.55-.06,3,3,0,0,0,0,6Z"/><path class="a" d="M11.2,13.41c-.95-1-3.25-1.52-4.55-1.52-1.67,0-5,.84-5,2.5v1.25H6C7,14.3,9.39,13.59,11.2,13.41Z"/><path class="a" d="M6.65,10.64a2.5,2.5,0,0,0,2-1c0-.1,0-.2,0-.3A3.49,3.49,0,0,1,9.08,7.6a2.5,2.5,0,1,0-2.43,3Z"/><path class="a" d="M17.38,11.88c-1.29,0-3.58.51-4.53,1.52,1.81.16,4.32.86,5.31,2.21h4.19V14.37C22.35,12.71,19,11.88,17.38,11.88Z"/><path class="b" d="M12,0A12,12,0,1,0,24,12,12,12,0,0,0,12,0Zm5.38,5.67A2.49,2.49,0,1,1,15.54,9.8a3.12,3.12,0,0,0,.05-.44A3.39,3.39,0,0,0,15,7.45,2.48,2.48,0,0,1,17.38,5.67Zm.36,10.22h0a1.81,1.81,0,0,1,.19.29l0,.08a2.34,2.34,0,0,1,.09.24,2,2,0,0,1,0,.35v1.5h-12v-1.5a1.86,1.86,0,0,1,0-.34,1.43,1.43,0,0,1,.08-.22.42.42,0,0,1,0-.1,1.91,1.91,0,0,1,.16-.27l0,0a2.76,2.76,0,0,1,.23-.27c1-1.05,3.3-1.64,4.87-1.76h0l.56,0,.44,0h0c1.56.09,3.87.67,5,1.73h0A3.33,3.33,0,0,1,17.74,15.89ZM12.09,6.36a2.51,2.51,0,0,1,.55.06l.18,0,.33.1.22.1a2.53,2.53,0,0,1,.23.12l.24.15a.39.39,0,0,0,.1.08,3.06,3.06,0,0,1,1,1.42h0a3.13,3.13,0,0,1,.16.93,3,3,0,1,1-3-3ZM6.65,5.64a2.49,2.49,0,0,1,2.43,2,3.49,3.49,0,0,0-.49,1.76c0,.1,0,.2,0,.3a2.5,2.5,0,1,1-2-4Zm-5,10V14.39c0-1.66,3.33-2.5,5-2.5,1.3,0,3.6.51,4.55,1.52C9.39,13.59,7,14.3,6,15.64Zm16.51,0c-1-1.35-3.5-2-5.31-2.21,1-1,3.24-1.52,4.53-1.52,1.66,0,5,.83,5,2.49v1.24Z"/></svg>