<svg xmlns="http://www.w3.org/2000/svg" viewBox="0 0 24 24"><defs><style>.a{fill:#0756a5;}.b{fill:#fff;}</style></defs><circle class="a" cx="12" cy="12" r="12"/><path class="b" d="M17.38,10.64A2.49,2.49,0,1,0,14.9,8.16,2.48,2.48,0,0,0,17.38,10.64Zm0,1.24c-1.65,0-5,.83-5,2.49v1.24h9.93V14.37C22.35,12.71,19,11.88,17.38,11.88Z"/><path class="b" d="M6.65,10.64a2.5,2.5,0,1,0-2.5-2.5A2.5,2.5,0,0,0,6.65,10.64Zm0,1.25c-1.67,0-5,.84-5,2.5v1.25h10V14.39C11.65,12.73,8.32,11.89,6.65,11.89Z"/><path class="b" d="M5.84,18.61V16.86c0-2.31,4.41-3.25,6.25-3.25s6.25.94,6.25,3.25v1.75Zm6.25-6a3.25,3.25,0,1,1,3.25-3.25A3.26,3.26,0,0,1,12.09,12.61Z"/><path class="a" d="M12.09,6.36a3,3,0,1,1-3,3,3,3,0,0,1,3-3m0,7.5c2,0,6,1,6,3v1.5h-12v-1.5c0-2,4-3,6-3m0-8a3.5,3.5,0,1,0,3.5,3.5,3.5,3.5,0,0,0-3.5-3.5Zm0,7.5c-2.2,0-6.5,1.06-6.5,3.5v2h13v-2c0-2.44-4.3-3.5-6.5-3.5Z"/></svg>