<svg xmlns="http://www.w3.org/2000/svg" viewBox="0 0 56 55"><defs><style>.a{fill:#262262;fill-rule:evenodd;}</style></defs><title>baby</title><path class="a" d="M28.05.37C12.79.37.33,12.51.33,27.52S12.79,54.67,28.05,54.67s27.71-12.2,27.71-27.15S43.31.37,28.05.37m0,3.77c13.16,0,23.87,10.49,23.87,23.38S41.21,50.9,28.05,50.9,4.18,40.41,4.18,27.52,14.89,4.14,28.05,4.14"/><path class="a" d="M36.33,38.65a2,2,0,1,1-2-2A2,2,0,0,1,36.33,38.65Zm-15,0a2,2,0,1,1,2,2A2,2,0,0,1,21.35,38.65Zm21-15.95A10.7,10.7,0,0,0,31.68,12V22.7H17.86l-3-3a1.76,1.76,0,1,0-1.75,1.68s3.21,3.14,3.21,3.14a10.68,10.68,0,0,0,9.79,8.83l.87.73-1.18,1a4.39,4.39,0,0,0-2.5-.79,4.33,4.33,0,1,0,4,2.65l1.54-1.29L30.38,37a4.34,4.34,0,1,0,1.5-1.86l-1.19-1,.84-.7h.15A10.7,10.7,0,0,0,42.37,22.7Z"/></svg>