<svg xmlns="http://www.w3.org/2000/svg" xmlns:xlink="http://www.w3.org/1999/xlink" viewBox="0 0 82 82"><defs><style>.a{fill:none;}.b{clip-path:url(#a);}.c{fill:#0756a5;}.d{fill:#fff;}</style><clipPath id="a"><rect class="a" x="1.03" y="6.94" width="79.95" height="68.13"/></clipPath></defs><g class="b"><path class="c" d="M15.26,70c-3.86,0-7-2.22-7-5V28.55c0-2.73,3.15-4.95,7-4.95H41V18.5H15.26C7.41,18.5,1,23,1,28.55V65c0,5.55,6.38,10,14.23,10H41V70Z"/><path class="c" d="M66.73,70c3.88,0,7-2.22,7-5V28.55c0-2.73-3.14-4.95-7-4.95H41V18.5H66.73C74.58,18.5,81,23,81,28.55V65c0,5.55-6.4,10-14.25,10H41V70Z"/></g><rect class="c" x="6.7" y="22.22" width="68.63" height="49.14"/><rect class="d" x="10.71" y="15.5" width="4.83" height="61.5"/><rect class="d" x="66.49" y="15.5" width="4.83" height="60.92"/><path class="c" d="M31.51,12.18h19v6.69h5.25V9.56A2.65,2.65,0,0,0,55,7.7a2.61,2.61,0,0,0-1.86-.76H28.88A2.62,2.62,0,0,0,27,7.7a2.65,2.65,0,0,0-.77,1.86v9.31h5.25V12.18Z"/></svg>