<svg xmlns="http://www.w3.org/2000/svg" viewBox="0 0 50 50"><defs><style>.a{fill:#ccc;}.b{fill:#fff;}</style></defs><title>no-fam</title><rect class="a" width="50" height="50"/><path class="b" d="M32.8,24.1a3.08,3.08,0,0,1-3-3,3,3,0,0,1,3-3,3,3,0,0,1,0,6m-3.9,7a3.08,3.08,0,0,1-3-3,3,3,0,0,1,3-3,3,3,0,0,1,3,3,3.07,3.07,0,0,1-3,3M25,38a3.08,3.08,0,0,1-3-3,3,3,0,0,1,3-3,3.08,3.08,0,0,1,3,3,3,3,0,0,1-3,3m-4.1-6.9a3.08,3.08,0,0,1-3-3,3,3,0,0,1,3-3,3.08,3.08,0,0,1,3,3,3,3,0,0,1-3,3M25,18a3.08,3.08,0,0,1,3,3,3,3,0,0,1-3,3,3.08,3.08,0,0,1-3-3,3,3,0,0,1,3-3m12.5,3a4.78,4.78,0,0,0-4.7-4.8A4.88,4.88,0,0,0,29,18.1l-.1.2-.1-.2A4.72,4.72,0,0,0,20.3,21v.2a3,3,0,0,1-3,2.8,3,3,0,0,1-3-3,3,3,0,0,1,2.8-3V16.2a4.79,4.79,0,0,0-.5,9.5h.3l-.2.3a5.37,5.37,0,0,0-.5,2.1,4.62,4.62,0,0,0,4.3,4.7h.3l-.1.2a4.06,4.06,0,0,0-.4,1.9A4.78,4.78,0,0,0,25,39.7a4.72,4.72,0,0,0,4.7-4.8,4.06,4.06,0,0,0-.4-1.9l-.1-.2h.2a4.66,4.66,0,0,0,4.1-4.7,4.55,4.55,0,0,0-.5-2v-.3h.3A4.78,4.78,0,0,0,37.5,21M26.8,13.4A5.1,5.1,0,0,1,29.4,12l-.2-1.7a6.62,6.62,0,0,0-3.7,1.9,6,6,0,0,0-1.4,2.6h1.8a3.39,3.39,0,0,1,.9-1.4"/></svg>