<?xml version="1.0" encoding="utf-8"?>
<!-- Generator: Adobe Illustrator 24.3.0, SVG Export Plug-In . SVG Version: 6.00 Build 0)  -->
<svg version="1.1" id="Layer_1" xmlns="http://www.w3.org/2000/svg" xmlns:xlink="http://www.w3.org/1999/xlink" x="0px" y="0px"
	 viewBox="0 0 512 512" style="enable-background:new 0 0 512 512;" xml:space="preserve">
<style type="text/css">
	.st0{fill:#0756A5;}
</style>
<g>
	<path class="st0" d="M296.4,407l-107.2,28.4c-4.4,1.2-9.2-0.1-12.4-3.3c-3.3-3.3-4.5-8-3.4-12.4l28.4-107.9
		c0.6-2.2,1.7-4.2,3.4-5.9l199.6-199V38.8C404.7,17.4,387.4,0,366,0H46.5C25.1,0,7.8,17.4,7.8,38.8v434.4
		c0,21.4,17.4,38.8,38.8,38.8H366c21.4,0,38.8-17.4,38.8-38.8V301.1L302.2,403.6C300.6,405.2,298.6,406.4,296.4,407z"/>
	<path class="st0" d="M232.6,315.1l60.5,61.1l204.4-204.4c9.4-9.4,9.4-24.6,0-33.9l-26.6-26.6c-9.4-9.4-24.5-9.4-33.9,0L232.6,315.1
		z"/>
	<path class="st0" d="M278.8,376.5l-46.3-46.8c-4.5-4.5-12.5-2.9-14.5,2.9l-20,60c-1.9,5.7,3.6,11.3,10,10l66.3-13.2
		C280.7,388.2,283.2,381,278.8,376.5z"/>
</g>
</svg>
