<svg xmlns="http://www.w3.org/2000/svg" viewBox="0 0 24 24"><defs><style>.a{fill:#fff;}</style></defs><path class="a" d="M23.09,3a5.63,5.63,0,0,0-3-2.56A6.64,6.64,0,0,0,16.55.06a14.22,14.22,0,0,0-5.87,2.48A21.59,21.59,0,0,0,6.13,6.68a19.63,19.63,0,0,1,5.13-3.15,11.77,11.77,0,0,1,5.46-1.32,4.39,4.39,0,0,1,2.4.58,3.31,3.31,0,0,1,1.24,1.57,6.6,6.6,0,0,1-.66,4.55l3.88,1.32A16.32,16.32,0,0,0,24,6.68,7.57,7.57,0,0,0,23.09,3Z"/><path class="a" d="M13,17.71A18.75,18.75,0,0,1,8.9,20.57c-1.82.91-3.8,1.4-5.46.74a3.29,3.29,0,0,1-1.82-1.82,7,7,0,0,1-.41-3,15.17,15.17,0,0,1,2-6.2,15.28,15.28,0,0,0-3,6A7.72,7.72,0,0,0,.22,20a5.14,5.14,0,0,0,2.31,3.15,7.9,7.9,0,0,0,3.81.91A13.63,13.63,0,0,0,10,23.47a23.87,23.87,0,0,0,5.58-2.73l1,1.16,2.4-6.62-6.86,1.24Z"/></svg>