<svg xmlns="http://www.w3.org/2000/svg" viewBox="0 0 29 28"><defs><style>.a{fill:#ccc;fill-rule:evenodd;}</style></defs><title>professional_inactive</title><path class="a" d="M1.57,7.05H3.14V18.5a1,1,0,0,0,1,1H7.75L3.28,26.41a1,1,0,0,0,.29,1.35,1,1,0,0,0,.53.15,1,1,0,0,0,.82-.46l5.15-8h9l5.14,8a1,1,0,0,0,.82.46,1.1,1.1,0,0,0,.53-.14,1,1,0,0,0,.29-1.35l-4.44-7H25a1,1,0,0,0,1-1V7.05h1.57a1,1,0,0,0,1-1V1a1,1,0,0,0-1-1h-26a1,1,0,0,0-1,1V6.06a1,1,0,0,0,1,1ZM24,17.54H19.87a1,1,0,0,0-.65,0H5.12V7.05h19V17.54ZM2.51,2H26.58V5.08h-24V2ZM8,15.61H8a1.16,1.16,0,0,1-.73-.26,1,1,0,0,1,0-1.4l2-2a.92.92,0,0,1,.94-.26l3.19.81,2.9-3.41A1,1,0,0,1,17.72,9a1,1,0,0,1,.12,1.39l-3.28,3.9a1,1,0,0,1-1,.31l-3.23-.84L8.74,15.32A1,1,0,0,1,8,15.61Z"/></svg>