<?xml version="1.0" encoding="utf-8"?>
<!-- Generator: Adobe Illustrator 24.0.1, SVG Export Plug-In . SVG Version: 6.00 Build 0)  -->
<svg version="1.1" id="Layer_1" xmlns="http://www.w3.org/2000/svg" xmlns:xlink="http://www.w3.org/1999/xlink" x="0px" y="0px"
	 viewBox="0 0 11 20" style="enable-background:new 0 0 11 20;" xml:space="preserve">
<style type="text/css">
	.st0{fill:#FFFFFF;}
</style>
<title>back_arrow</title>
<path class="st0" d="M5.5,14c1.1,0,2,0.9,2,2s-0.9,2-2,2s-2-0.9-2-2S4.4,14,5.5,14z M5.5,8c1.1,0,2,0.9,2,2s-0.9,2-2,2s-2-0.9-2-2
	S4.4,8,5.5,8z M5.5,6c-1.1,0-2-0.9-2-2s0.9-2,2-2s2,0.9,2,2S6.6,6,5.5,6z"/>
</svg>
