<svg xmlns="http://www.w3.org/2000/svg" xmlns:xlink="http://www.w3.org/1999/xlink" viewBox="0 0 56 55"><defs><style>.a{fill:#fff;}.a,.c{fill-rule:evenodd;}.b{mask:url(#a);}.c{fill:#262262;}</style><mask id="a" x="0" y="0.37" width="55.43" height="54.08" maskUnits="userSpaceOnUse"><polygon class="a" points="0 0.37 0 54.45 55.43 54.45 55.43 0.37 0 0.37"/></mask></defs><title>husband</title><g class="b"><path class="c" d="M43.18,44.81,36,40.58a9.91,9.91,0,0,0-5.18-1.43H24.71a10.34,10.34,0,0,0-5.25,1.43L12.32,45c.28.21.56.48.84.69A22.76,22.76,0,0,1,4,27.4,23.51,23.51,0,0,1,27.71,4.26c13.09,0,23.66,10.31,23.66,23.08a22.92,22.92,0,0,1-8.19,17.47m-1.75,1.37a10.25,10.25,0,0,1-.91.62c.28-.21.63-.41.91-.62a10.26,10.26,0,0,1,.91-.61,10.26,10.26,0,0,1-.91.61m-27.36.07a8.77,8.77,0,0,1,.9.61c-.27-.2-.62-.41-.9-.61M27.71.37C12.46.37,0,12.45,0,27.4s12.46,27,27.71,27,27.72-12.15,27.72-27S43,.37,27.71.37"/></g><path class="c" d="M28,7.06A11.75,11.75,0,0,0,16.1,18.67v7.1a11.9,11.9,0,0,0,23.79,0v-7.1A11.75,11.75,0,0,0,28,7.06"/></svg>