<svg xmlns="http://www.w3.org/2000/svg" viewBox="0 0 82 82"><defs><style>.a{fill:#0756a5;fill-rule:evenodd;}</style></defs><path class="a" d="M81.4,65.08c0-.27-.54-1.36-.54-1.63A79.44,79.44,0,0,0,65.68,51.52,8.52,8.52,0,0,0,60,50.16c-1.35.27-2.44,1.09-4.61,4.34a23.65,23.65,0,0,1-2.44,2.71,9.49,9.49,0,0,1-3,1.09A18.9,18.9,0,0,1,40.46,55a36.83,36.83,0,0,1-7.87-6.77,29.12,29.12,0,0,1-6.5-8.68c-1.9-4.07-2.44-6.51-1.63-8.14,0-.54,0-1.08.27-1.08a23.65,23.65,0,0,0,2.71-2.44,9.19,9.19,0,0,0,3.8-4.07,8.2,8.2,0,0,0-.54-5.69c-.82-1.36-3-4.88-4.34-6.78C24.46,8.68,19.58,2.71,19,1.9a6.31,6.31,0,0,0-6.51-.82A31.59,31.59,0,0,0,3,8.68,10.77,10.77,0,0,0,.33,14.91a11.08,11.08,0,0,0,1.08,5.16A108.42,108.42,0,0,0,36.66,65.89,103.29,103.29,0,0,0,62.42,80c5.15,1.9,7.32,1.9,10,.27a25.6,25.6,0,0,0,5.43-5.42,19.65,19.65,0,0,0,3.79-6.51A14.35,14.35,0,0,0,81.4,65.08Z"/></svg>