<svg xmlns="http://www.w3.org/2000/svg" viewBox="0 0 34 34"><defs><style>.a{fill:#ccc;}</style></defs><title>people</title><path class="a" d="M30.5,15.5v3.9H21.7a4.92,4.92,0,0,0-.6-1.7H29V15.5c0-1.1-2.3-2.6-6-2.6-2.7,0-4.6.8-5.5,1.7-.5-.2-.9-.4-1.5-.6,1.1-1.8,4.1-2.8,6.9-2.8C26.7,11.2,30.5,12.7,30.5,15.5Z"/><path class="a" d="M23.1,1a4.7,4.7,0,1,1-4.7,4.7A4.69,4.69,0,0,1,23.1,1Zm3.1,4.7a3,3,0,1,0-3,3A3,3,0,0,0,26.2,5.7Z"/><path class="a" d="M20.7,20.1v5.3H.3V19.7a4.79,4.79,0,0,1,2.2-3.4h0a7.68,7.68,0,0,1,1.8-1h0c.3-.1.5-.2.8-.3a15.69,15.69,0,0,1,5.4-.9,18.36,18.36,0,0,1,5.3.8v2.4a15.79,15.79,0,0,0-5.3-.9c-5.1,0-8.3,2.1-8.3,3.6v3H18.8V20a1.85,1.85,0,0,0-.2-.7h2.1Z"/><path class="a" d="M20.6,19.3H18.5a5.26,5.26,0,0,0-2.8-1.9V15a5,5,0,0,1,1.3.5v2.1h2.7c.1.1.2.3.3.4A3,3,0,0,1,20.6,19.3Z"/><path class="a" d="M20.2,18.1a2.84,2.84,0,0,1,.4,1.2A5.64,5.64,0,0,0,20.2,18.1Z"/><path class="a" d="M19.9,17.6c.1.1.2.3.3.4A1.38,1.38,0,0,1,19.9,17.6Z"/><path class="a" d="M19.9,17.6H17.2V15.5a7.36,7.36,0,0,1,2.4,1.7A1.38,1.38,0,0,0,19.9,17.6Z"/><path class="a" d="M10.5,0a6.57,6.57,0,0,1,6.6,6.5A6.49,6.49,0,0,1,10.9,13H9.8A6.52,6.52,0,0,1,3.9,6.5,6.57,6.57,0,0,1,10.5,0Zm4.2,6.5a4.2,4.2,0,1,0-4.2,4.2A4.16,4.16,0,0,0,14.7,6.5Z"/><path class="a" d="M5.1,15c-.3.1-.5.2-.8.3A6.89,6.89,0,0,1,5.1,15Z"/><path class="a" d="M4.3,15.3a16.18,16.18,0,0,0-1.8,1A7.68,7.68,0,0,1,4.3,15.3Z"/><path class="a" d="M2.5,16.3A4.79,4.79,0,0,0,.3,19.7v-.1A4.72,4.72,0,0,1,2.5,16.3Z"/></svg>