<svg xmlns="http://www.w3.org/2000/svg" xmlns:xlink="http://www.w3.org/1999/xlink" viewBox="0 0 56 55"><defs><style>.a{fill:#fff;}.a,.c{fill-rule:evenodd;}.b{mask:url(#a);}.c{fill:#262262;}.d{mask:url(#b);}</style><mask id="a" x="0" y="0.37" width="55.43" height="54.08" maskUnits="userSpaceOnUse"><polygon class="a" points="27.72 0.37 55.43 0.37 55.43 54.44 27.72 54.44 0 54.44 0 0.37 27.72 0.37"/></mask><mask id="b" x="0" y="0.37" width="55.43" height="54.08" maskUnits="userSpaceOnUse"><polygon class="a" points="27.72 0.37 55.43 0.37 55.43 54.44 27.72 54.44 0 54.44 0 0.37 27.72 0.37"/></mask></defs><title>wife</title><g class="b"><path class="c" d="M43.22,44.77h0l.11-.09-7-4.17a9.85,9.85,0,0,0-5.17-1.43H25a10.34,10.34,0,0,0-5.25,1.43L12.46,45l0,0h0A22.71,22.71,0,0,1,4,27.41,23.51,23.51,0,0,1,27.72,4.26c13.09,0,23.65,10.31,23.65,23.08a22.72,22.72,0,0,1-8.15,17.43M27.72.37C12.46.37,0,12.45,0,27.4s12.46,27,27.72,27,27.71-12.15,27.71-27S43,.37,27.72.37"/></g><g class="d"><path class="c" d="M41,26.52l-.28-6.35a12.95,12.95,0,1,0-25.89,0l-.28,6.35a26.45,26.45,0,0,1-2.45,8.06,1.87,1.87,0,0,0,.07,1.91,2.1,2.1,0,0,0,1.75.95H41.65a2.08,2.08,0,0,0,1.74-.95,1.87,1.87,0,0,0,.07-1.91A26.45,26.45,0,0,1,41,26.52"/></g></svg>