<svg xmlns="http://www.w3.org/2000/svg" viewBox="0 0 120 120"><defs><style>.a{fill:none;}.b{fill:#ccc;}</style></defs><path class="a" d="M2.19,94.47h16v16h-16Z"/><path class="b" d="M81.82,54.76a15.75,15.75,0,0,0,1.82-31.44,13.82,13.82,0,0,0-1.82,0A16,16,0,0,0,65.45,39v.07A16,16,0,0,0,81.8,54.76ZM38.18,65.26C25.5,65.24,0,71.38,0,83.59v13.1H76.37V83.59c0-12.21-25.48-18.35-38.19-18.35Zm43.64,0c-1.59,0-3.38.11-5.29.27A21.94,21.94,0,0,1,87.28,83.61v13.1H120V83.59c0-12.21-25.5-18.35-38.18-18.35ZM40,54.76a15.75,15.75,0,0,0,1.82-31.44,13.82,13.82,0,0,0-1.82,0A16,16,0,0,0,23.66,39v.07A16,16,0,0,0,40,54.76Z"/></svg>