<svg xmlns="http://www.w3.org/2000/svg" viewBox="0 0 120 120"><defs><style>.a{fill:#008eff;}</style></defs><path class="a" d="M60,70.8a19,19,0,0,0,19-19V22A19,19,0,1,0,41,22V51.84A19,19,0,0,0,60,70.8Zm0-9a10,10,0,0,1-10-10V41.43H70V51.84A10,10,0,0,1,60,61.8Zm0-49.75A10,10,0,0,1,70,22V32.43H50V22A10,10,0,0,1,60,12.05Z"/><path class="a" d="M103,108H64.5V88.53A37,37,0,0,0,97,51.84V37a4.5,4.5,0,0,0-9,0V51.84a28,28,0,0,1-56,0V37a4.5,4.5,0,0,0-9,0V51.84A37,37,0,0,0,55.5,88.53V108H17a4.5,4.5,0,1,0,0,9h86a4.5,4.5,0,0,0,0-9Z"/></svg>